<svg xmlns="http://www.w3.org/2000/svg" viewBox="0 0 300.167 300.167"><path d="M251.39 157.505c-1.362-1.559-2.517-3.26-3.469-5.056-.468 48.27-39.875 87.398-88.254 87.398-48.669 0-88.265-39.596-88.265-88.265s39.596-88.265 88.265-88.265c41.868 0 77.02 29.304 86.027 68.477l7.993-59.42.18-1.336c-22.76-26.581-56.544-43.457-94.2-43.457-29.378 0-56.398 10.276-77.667 27.414v28.586c0 16.811-8.713 32.159-22.5 40.929v100.073c22.574 30.89 59.063 50.998 100.167 50.998 43.192 0 81.291-22.203 103.5-55.79V165.28a26.5556 26.5556 0 01-11.777-7.775z"/><path d="M159.667 78.318c-40.398 0-73.265 32.866-73.265 73.265s32.866 73.265 73.265 73.265 73.265-32.866 73.265-73.265-32.867-73.265-73.265-73.265zM299.833 14.476c0-6.384-5.175-11.559-11.559-11.559-5.788 0-10.684 4.281-11.455 10.018l-16.89 125.549a11.5567 11.5567 0 0011.455 13.099h6.782V286.25c0 6.075 4.925 11 11 11s11-4.925 11-11l-.333-271.774zM67 16.917c0-4.143-3.357-7.5-7.5-7.5s-7.5 3.357-7.5 7.5v41.499H41V16.917c0-4.143-3.357-7.5-7.5-7.5s-7.5 3.357-7.5 7.5v41.499H15V16.917c0-4.143-3.357-7.5-7.5-7.5S0 12.774 0 16.917v67.666c0 14.619 9.417 27.073 22.5 31.636V286.25c0 6.075 4.925 11 11 11s11-4.925 11-11V116.219C57.583 111.656 67 99.202 67 84.583V16.917z"/></svg>
