<svg xmlns="http://www.w3.org/2000/svg" viewBox="0 0 92.9 92.9"><path d="M72.932 46.973L61.629 40.45c-.725-.418-1.601-1.531-1.837-2.334l-3.501-11.912a2.753 2.753 0 00-.381-.798c-.509-.936-1.49-1.572-2.627-1.572l-14.945.645c-.655.028-1.264.276-1.763.687-.1.061-.204.12-.294.189l-10.155 7.832c-1.173.905-1.83 2.745-1.494 4.188l4.021 17.3c.335 1.444 1.717 2.534 3.212 2.534.101 0 .203-.005.304-.015l1.501-.15c.804-.081 1.53-.489 1.99-1.121.461-.632.628-1.448.459-2.238L33.26 40.33c-.15-.701.23-1.738.798-2.175l1.809-1.393.93 21.444c.001.023.008.044.01.067l-4.128 9.156c-.52 1.153-1.826 2.75-2.852 3.489l-9.678 6.968c-1.559 1.122-2.148 3.366-1.342 5.11l1.324 2.861c.528 1.141 1.587 1.85 2.765 1.85.674 0 1.337-.229 1.917-.66l12.778-9.515c1.273-.948 2.843-2.793 3.574-4.202l6.379-12.286c.051-.099.083-.205.125-.308l.445-.019 10.441 28.786c.737 2.032 2.703 3.398 4.892 3.398.52 0 1.034-.079 1.528-.236l.644-.205c1.276-.405 2.301-1.282 2.887-2.47.585-1.188.656-2.536.2-3.794L57.711 55.885c-.051-.14-.121-.268-.182-.401l-.353-8.134 12.122 6.297c.426.222.906.339 1.389.339 1.122 0 2.149-.607 2.68-1.584l.721-1.328c.784-1.441.265-3.281-1.156-4.101zM44.162 21.673c.157 0 .316-.003.475-.01 2.891-.125 5.561-1.37 7.517-3.503s2.964-4.901 2.839-7.792C54.735 4.397 49.745-.249 43.698.01c-2.891.125-5.561 1.37-7.517 3.503-1.956 2.134-2.964 4.901-2.839 7.792.252 5.814 5.005 10.368 10.82 10.368z"/></svg>
