<?xml version="1.0" standalone="no"?>
<!DOCTYPE svg PUBLIC "-//W3C//DTD SVG 20010904//EN"
 "http://www.w3.org/TR/2001/REC-SVG-20010904/DTD/svg10.dtd">
<svg version="1.0" xmlns="http://www.w3.org/2000/svg"
 width="1280.000000pt" height="1280.000000pt" viewBox="0 0 1280.000000 1280.000000"
 preserveAspectRatio="xMidYMid meet">
<metadata>
Created by potrace 1.11, written by Peter Selinger 2001-2013
</metadata>
<g transform="translate(0.000000,1280.000000) scale(0.100000,-0.100000)"
fill="#000000" stroke="none">
<path d="M4934 11104 c-23 -15 -59 -54 -82 -88 -39 -57 -142 -268 -142 -291 0
-13 -149 -165 -195 -201 -19 -14 -39 -23 -45 -19 -6 4 -36 41 -67 84 -107 146
-161 191 -230 191 -44 -1 -77 -25 -118 -87 -31 -48 -64 -63 -144 -63 -63 0
-115 -22 -143 -60 -10 -14 -28 -68 -42 -122 -30 -124 -57 -179 -113 -228 -61
-54 -98 -59 -167 -26 -71 35 -229 185 -313 297 -71 96 -100 115 -164 106 -106
-14 -224 -105 -501 -384 l-197 -199 70 -274 c38 -151 74 -291 80 -311 7 -30
17 -40 50 -53 l40 -16 -74 -88 c-99 -116 -197 -206 -257 -237 -80 -41 -123
-42 -241 -7 -144 41 -186 51 -265 58 -86 8 -141 -6 -179 -47 l-30 -31 2 -136
c2 -75 7 -200 13 -276 6 -76 9 -141 7 -143 -2 -2 -30 3 -63 12 -75 19 -174 19
-222 -1 -57 -23 -101 -72 -117 -129 -8 -27 -28 -169 -46 -315 -17 -146 -32
-266 -33 -267 -1 -1 -41 7 -89 17 -284 62 -441 64 -495 7 -21 -22 -22 -32 -24
-301 l-3 -278 -63 -24 c-171 -64 -303 -155 -323 -224 -22 -71 10 -119 110
-166 117 -55 231 -154 231 -199 0 -7 -30 -45 -66 -86 -91 -103 -184 -226 -205
-274 -50 -108 16 -164 140 -120 33 11 43 12 47 2 2 -7 6 -100 7 -207 2 -220 9
-247 73 -277 29 -14 34 -21 29 -40 -3 -12 -15 -75 -26 -140 -24 -137 -38 -530
-21 -574 7 -17 145 -124 418 -325 224 -164 413 -302 420 -307 7 -4 604 -223
1327 -487 l1314 -479 999 -251 c549 -138 1132 -285 1294 -326 245 -63 1679
-412 2485 -605 116 -28 379 -100 585 -159 206 -60 494 -143 640 -185 l265 -77
190 17 c409 35 707 84 802 130 29 15 64 40 78 57 65 77 105 201 105 326 0 51
4 72 13 72 6 0 43 -5 82 -10 120 -18 183 -15 208 8 23 21 134 76 310 152 113
49 103 33 153 230 24 90 37 168 41 235 5 96 3 104 -31 205 -57 162 -138 319
-196 378 -46 47 -52 58 -76 154 -29 114 -27 158 8 195 25 27 97 67 105 59 3
-3 -4 -22 -16 -42 -13 -22 -18 -41 -13 -46 9 -9 430 -248 443 -251 7 -2 396
299 404 313 3 5 31 149 61 321 l55 311 -20 136 c-42 276 -75 349 -191 431 -39
27 -77 52 -83 54 -7 2 16 33 50 70 130 140 214 341 199 480 -12 118 -93 224
-235 307 -36 21 -73 46 -82 57 -41 45 -107 221 -86 228 7 2 26 6 42 10 119 26
163 139 111 287 -51 145 -144 277 -226 322 -44 24 -59 27 -99 22 -100 -14
-277 -2 -314 21 -5 3 16 31 46 62 68 69 87 106 87 169 0 95 -96 234 -196 282
-60 29 -128 35 -194 17 -104 -30 -164 -55 -180 -77 l-16 -21 -62 20 c-67 23
-112 27 -128 11 -17 -17 -174 -40 -276 -40 l-98 0 30 58 c27 54 70 203 70 246
0 30 70 101 96 98 12 -2 86 30 165 70 125 64 154 83 226 153 89 86 102 115 85
173 -14 45 -89 166 -128 206 -16 16 -84 56 -150 88 l-122 60 45 107 45 106
-11 105 c-6 58 -13 134 -15 169 -3 48 -10 69 -27 87 -31 33 -188 108 -281 136
-71 20 -84 21 -150 10 -84 -13 -328 -35 -334 -29 -2 2 -9 64 -15 138 -13 155
-34 223 -102 327 -94 143 -166 189 -280 180 -71 -6 -146 -39 -226 -99 l-51
-39 -155 0 -155 0 0 31 c0 54 31 153 56 180 13 14 24 36 24 49 0 43 -53 131
-122 205 -98 105 -109 108 -287 100 -80 -4 -165 -11 -189 -15 -42 -7 -43 -7
-89 44 -25 28 -91 112 -146 186 -145 194 -174 227 -224 257 -77 45 -161 28
-332 -66 -73 -40 -96 -60 -178 -154 -51 -60 -103 -121 -115 -137 -21 -28 -22
-29 -52 -13 -17 9 -76 59 -132 113 -113 109 -175 146 -226 135 -50 -11 -106
-42 -176 -97 -73 -58 -80 -70 -98 -157 -32 -152 -52 -199 -107 -252 -60 -57
-192 -149 -214 -149 -35 0 -219 215 -238 280 -23 75 -104 218 -152 267 -59 61
-85 66 -181 34 -48 -16 -234 -53 -238 -48 -1 1 19 63 44 137 55 166 58 207 17
250 -32 34 -92 75 -190 129 -33 18 -73 49 -88 67 -23 27 -36 34 -65 34 -43 0
-55 -7 -71 -38 -13 -25 -53 -45 -189 -93 -102 -35 -94 -37 -225 57 -105 76
-179 114 -222 114 -17 0 -49 -12 -71 -26z m3531 -587 c28 -36 85 -112 127
-169 93 -125 172 -215 210 -238 25 -15 35 -16 83 -5 30 7 117 16 194 20 l139
7 45 -45 c25 -24 57 -63 72 -85 l26 -40 -19 -39 c-32 -64 -47 -134 -47 -220 0
-67 4 -86 21 -110 l21 -28 224 0 224 0 41 41 c53 53 139 94 198 94 39 0 51 -5
82 -37 53 -53 110 -145 133 -216 15 -47 21 -103 27 -237 3 -96 8 -178 10 -182
3 -4 23 0 47 7 23 8 107 19 187 25 80 5 179 15 220 21 68 10 82 9 139 -11 35
-12 94 -36 130 -55 l67 -33 2 -49 c2 -26 7 -86 12 -131 l9 -84 -44 -109 c-24
-60 -58 -127 -75 -149 l-32 -40 24 -9 c13 -4 50 -18 83 -30 33 -12 105 -44
160 -71 95 -47 102 -52 145 -117 25 -37 48 -75 52 -84 12 -29 -95 -120 -216
-184 -100 -53 -109 -56 -102 -34 45 154 39 224 -25 287 -52 53 -138 77 -242
69 -110 -8 -155 -24 -182 -66 -13 -20 -43 -55 -67 -79 l-45 -43 -44 17 c-24
10 -45 18 -47 19 -2 2 11 56 27 121 17 65 31 126 31 136 0 9 -18 74 -40 143
-22 69 -46 156 -54 194 -37 175 -146 283 -300 298 -74 7 -136 -16 -136 -49 0
-11 -56 -130 -125 -264 -69 -134 -125 -249 -125 -256 0 -7 -10 -19 -21 -27
-20 -12 -26 -9 -70 37 -42 44 -51 61 -69 134 -32 123 -53 166 -91 182 -47 20
-84 3 -126 -56 l-35 -49 -23 48 c-41 87 -173 198 -362 304 l-83 46 40 27 c55
37 89 92 97 157 3 30 14 79 23 109 10 30 30 106 45 168 30 134 25 169 -33 234
-78 87 -216 127 -458 133 -91 2 -169 7 -173 9 -5 3 -11 20 -15 37 -10 51 -57
139 -93 175 -60 61 -136 64 -228 10 -46 -28 -116 -106 -142 -162 -23 -48 -205
-164 -256 -164 -33 0 -93 46 -147 111 -24 30 -100 102 -168 159 -99 84 -122
109 -118 125 3 11 16 62 28 113 21 86 26 96 64 127 22 18 59 43 82 55 l42 22
37 -30 c21 -17 72 -65 113 -108 58 -59 91 -85 145 -110 111 -51 119 -51 148
-1 14 23 72 96 129 161 99 116 106 122 206 172 56 29 115 54 130 56 37 5 76
-25 137 -105z m-2103 -156 c20 -29 54 -94 75 -145 25 -60 62 -123 110 -187 82
-110 135 -161 198 -191 41 -20 50 -21 91 -10 59 16 161 82 239 154 l60 56 103
-87 c56 -47 129 -117 163 -154 155 -171 236 -191 396 -94 116 69 181 125 207
176 49 95 135 153 176 116 28 -25 59 -107 72 -188 l12 -72 235 0 c222 0 240
-1 301 -23 80 -29 130 -65 130 -95 0 -12 -12 -72 -26 -133 l-26 -111 -107 -90
c-105 -89 -107 -90 -136 -77 -17 8 -108 43 -202 79 -201 76 -172 80 -333 -35
-52 -37 -117 -81 -143 -98 -31 -19 -76 -66 -124 -129 -42 -54 -90 -114 -108
-134 -17 -19 -49 -67 -70 -107 -21 -39 -42 -69 -45 -67 -4 3 -121 25 -261 50
-216 39 -304 61 -589 146 l-335 100 -345 -2 c-190 -1 -356 1 -370 4 -14 4
-115 13 -225 22 -110 9 -230 20 -268 25 -57 9 -98 6 -265 -19 -323 -48 -530
-66 -547 -49 -15 14 -27 169 -20 268 7 121 -6 101 175 270 l106 98 174 11
c186 12 307 28 315 40 2 5 -3 43 -12 86 -11 54 -13 89 -7 119 9 40 10 41 49
41 22 -1 86 -11 142 -23 172 -37 281 -27 361 35 36 27 171 204 257 336 43 67
55 78 85 83 107 17 233 45 248 54 29 16 45 7 84 -49z m-997 -333 c61 -13 101
-24 90 -26 -11 -1 -72 9 -135 22 -63 14 -104 25 -90 25 14 1 75 -9 135 -21z
m-2632 -754 c38 -15 71 -32 73 -39 3 -7 -27 -77 -66 -155 -73 -146 -99 -235
-79 -268 5 -9 29 -73 53 -142 24 -69 52 -146 62 -172 l18 -47 -30 -42 c-16
-23 -101 -115 -189 -204 -144 -145 -173 -169 -288 -239 -115 -70 -187 -130
-704 -585 l-576 -506 -134 -245 c-133 -243 -359 -687 -421 -828 -19 -44 -38
-72 -45 -69 -9 3 -13 59 -17 203 -4 164 -8 205 -22 231 -25 45 -56 63 -106 63
l-43 0 31 43 c17 24 76 93 130 155 55 61 100 120 100 131 0 33 -28 100 -62
147 -40 57 -118 116 -219 169 l-79 41 27 26 c43 40 115 77 245 128 l119 47 -1
291 -1 292 64 0 c76 0 255 -29 419 -69 l117 -28 5 36 c3 20 8 59 11 86 19 178
67 563 71 578 12 40 45 57 109 57 72 0 133 -17 239 -65 48 -22 76 -30 76 -22
0 6 -9 159 -21 338 -12 180 -19 334 -16 343 12 31 117 18 331 -41 103 -28 138
-34 178 -29 138 19 254 100 422 296 44 52 88 100 96 107 22 18 48 16 123 -13z
m2632 -364 c134 -18 730 -92 975 -121 52 -7 201 -40 330 -75 129 -34 330 -88
445 -119 116 -31 361 -97 545 -146 184 -49 355 -96 380 -103 37 -11 595 -244
1290 -540 l145 -61 365 -391 365 -390 317 -595 316 -594 82 -370 c125 -564
215 -944 248 -1052 12 -37 18 -80 16 -105 -3 -24 -13 -281 -24 -573 -11 -291
-25 -672 -31 -845 -9 -247 -9 -344 0 -450 21 -232 -13 -389 -100 -451 -54 -38
-373 -90 -759 -124 l-185 -16 -620 179 c-536 155 -750 211 -1580 412 -896 216
-2211 543 -3500 868 l-550 139 -815 298 c-448 163 -1031 376 -1295 472 -264
96 -492 182 -507 191 -14 9 -195 141 -402 292 l-376 275 0 150 c0 216 27 418
75 560 52 155 223 505 465 947 l123 227 561 493 561 493 778 477 777 478 158
41 c420 109 382 101 436 88 29 -7 79 -9 125 -6 185 15 315 30 441 52 152 27
195 26 425 -5z m2352 -347 c-3 -2 -46 6 -97 19 -50 12 -87 24 -82 26 6 2 35
-3 65 -11 55 -15 56 -14 79 10 l23 24 8 -31 c4 -18 6 -34 4 -37z m-4806 -218
c-40 -25 -75 -45 -77 -45 -3 0 9 18 27 40 33 41 45 47 94 49 25 1 19 -5 -44
-44z m7433 -101 c-15 -55 -33 -125 -39 -157 l-13 -58 57 -29 56 -28 -28 -11
c-108 -42 -124 38 -52 267 21 67 40 120 42 118 2 -2 -8 -48 -23 -102z m1666
-3094 c0 -9 -38 -29 -44 -23 -15 15 -4 33 19 31 14 -1 25 -5 25 -8z m-361
-564 c-9 -8 -10 -7 -5 7 3 10 7 26 7 35 1 9 4 6 6 -7 3 -13 -1 -28 -8 -35z"/>
<path d="M6440 8255 c-44 -20 -67 -41 -96 -86 -64 -101 -72 -280 -19 -397 95
-210 308 -174 370 63 63 242 -90 494 -255 420z"/>
<path d="M6752 7810 c-47 -29 -72 -76 -72 -135 0 -89 49 -151 126 -162 71 -9
144 60 151 144 11 122 -108 212 -205 153z"/>
<path d="M1670 6405 c-235 -122 -280 -545 -81 -759 127 -136 334 -104 435 68
51 86 69 162 69 281 0 153 -36 256 -122 348 -81 87 -205 113 -301 62z"/>
<path d="M1917 5585 c-48 -16 -62 -28 -81 -69 -49 -104 9 -224 111 -233 64 -5
107 21 135 84 55 125 -46 260 -165 218z"/>
<path d="M10154 4511 c-61 -16 -128 -57 -176 -110 -155 -170 -190 -453 -83
-677 98 -203 291 -292 458 -211 112 56 203 180 242 332 18 69 20 221 4 297
-17 84 -83 210 -139 268 -81 83 -210 126 -306 101z"/>
<path d="M9854 3510 c-45 -18 -94 -102 -94 -163 0 -113 95 -207 178 -176 66
25 104 86 105 169 1 124 -93 209 -189 170z"/>
<path d="M10345 3390 c-31 -13 -82 -71 -101 -115 -40 -94 -10 -253 58 -310
138 -116 312 50 268 258 -27 130 -130 207 -225 167z"/>
<path d="M8190 3178 c-67 -45 -78 -107 -29 -163 39 -44 93 -60 151 -45 98 27
129 116 64 187 -30 33 -39 37 -92 41 -50 3 -64 0 -94 -20z"/>
<path d="M7815 3021 c-126 -57 -179 -199 -119 -319 71 -144 264 -180 386 -72
128 112 99 314 -57 386 -63 30 -152 32 -210 5z"/>
</g>
</svg>
